<?xml version="1.0" encoding="utf-8"?>
<!-- Generator: Adobe Illustrator 15.1.0, SVG Export Plug-In . SVG Version: 6.00 Build 0)  -->
<!DOCTYPE svg PUBLIC "-//W3C//DTD SVG 1.1//EN" "http://www.w3.org/Graphics/SVG/1.1/DTD/svg11.dtd">
<svg version="1.1" id="Layer_1" xmlns="http://www.w3.org/2000/svg" xmlns:xlink="http://www.w3.org/1999/xlink" x="0px" y="0px"
	 width="100px" height="100px" viewBox="0 0 100 100" enable-background="new 0 0 100 100" xml:space="preserve">
<rect fill="#99D4EF" width="100" height="100"/>
<path fill="#FFFFFF" d="M50.001,26.941c5.868,0,10.642,4.774,10.642,10.643c0,5.868-4.773,10.642-10.642,10.642
	c-5.869,0-10.643-4.774-10.643-10.642C39.358,31.715,44.132,26.941,50.001,26.941 M50.001,19.846
	c-9.798,0-17.738,7.94-17.738,17.738c0,9.797,7.94,17.737,17.738,17.737c9.797,0,17.737-7.94,17.737-17.737
	C67.738,27.786,59.798,19.846,50.001,19.846L50.001,19.846z"/>
<path fill="#FFFFFF" d="M50.001,55.321c9.797,0,17.737,7.94,17.737,17.738H32.263C32.263,63.262,40.203,55.321,50.001,55.321
	 M50.001,48.226c-13.691,0-24.833,11.142-24.833,24.833c0,3.918,3.177,7.095,7.095,7.095h35.476c3.918,0,7.095-3.177,7.095-7.095
	C74.833,59.368,63.692,48.226,50.001,48.226L50.001,48.226z"/>
</svg>
