<?xml version="1.0" encoding="utf-8"?>
<!-- Generator: Adobe Illustrator 15.1.0, SVG Export Plug-In . SVG Version: 6.00 Build 0)  -->
<!DOCTYPE svg PUBLIC "-//W3C//DTD SVG 1.1//EN" "http://www.w3.org/Graphics/SVG/1.1/DTD/svg11.dtd">
<svg version="1.1" id="Layer_1" xmlns="http://www.w3.org/2000/svg" xmlns:xlink="http://www.w3.org/1999/xlink" x="0px" y="0px"
	 width="24px" height="24px" viewBox="0 0 24 24" enable-background="new 0 0 24 24" xml:space="preserve">
<path d="M8.27,4.964c0,0,2.013,3.602,2.166,3.927C10,10,8.951,10.756,8.308,10.885c0.902,2.318,3.276,4.088,5.338,5.247
	c0.654-1.156,2.282-1.929,2.282-1.929l3.42,2.098c0,0.771-1.031,2.704-2.834,3.221c-0.354,0.101-0.703,0.147-1.05,0.147
	c-2.426,0-4.695-2.287-6.808-4.399c-2.704-2.705-3.993-5.796-3.864-7.084C4.92,6.896,6.344,5.562,8.27,4.964 M9.225,2.573
	L7.676,3.054C4.97,3.895,3.011,5.877,2.802,7.987c-0.224,2.241,1.643,5.898,4.44,8.696l0.051,0.051
	c2.313,2.312,4.937,4.935,8.171,4.935c0.539,0,1.076-0.075,1.598-0.224c2.656-0.762,4.286-3.51,4.286-5.145v-1.119l-0.954-0.586
	l-3.42-2.098l-0.924-0.566l-0.979,0.464c-0.224,0.106-1.006,0.5-1.791,1.157c-0.946-0.65-1.714-1.331-2.272-2.015
	c0.531-0.515,0.995-1.162,1.29-1.916l0.316-0.803l-0.368-0.781c-0.159-0.337-1.465-2.682-2.229-4.049L9.225,2.573L9.225,2.573z"/>
</svg>
