<svg version="1.1" xmlns="http://www.w3.org/2000/svg" xmlns:xlink="http://www.w3.org/1999/xlink" x="0px" y="0px"
	 width="24px" height="24px" viewBox="0 0 24 24" xml:space="preserve">
	<path d="M12,21.9c-5.5,0-9.9-4.4-9.9-9.9S6.5,2.1,12,2.1s9.9,4.4,9.9,9.9S17.5,21.9,12,21.9z M12,3.9
		c-4.5,0-8.1,3.6-8.1,8.1s3.6,8.1,8.1,8.1s8.1-3.6,8.1-8.1S16.5,3.9,12,3.9z"/>

<path d="M15.7,11H13V8.3c0-0.6-0.4-1-1-1s-1,0.4-1,1V11H8.2c-0.6,0-1,0.4-1,1s0.4,1,1,1H11v2.7c0,0.6,0.4,1,1,1
	s1-0.4,1-1V13h2.7c0.6,0,1-0.4,1-1S16.3,11,15.7,11z"/>
</svg>
