<?xml version="1.0" encoding="utf-8"?>
<!-- Generator: Adobe Illustrator 15.1.0, SVG Export Plug-In . SVG Version: 6.00 Build 0)  -->
<!DOCTYPE svg PUBLIC "-//W3C//DTD SVG 1.1//EN" "http://www.w3.org/Graphics/SVG/1.1/DTD/svg11.dtd">
<svg version="1.1" id="Layer_1" xmlns="http://www.w3.org/2000/svg" xmlns:xlink="http://www.w3.org/1999/xlink" x="0px" y="0px"
	 width="24px" height="24px" viewBox="0 0 24 24" enable-background="new 0 0 24 24" xml:space="preserve">
<path d="M11.999,21.998c-0.302,0-0.624-0.02-0.927-0.04c-0.933-0.125-1.616-0.801-1.731-1.651C9.223,19.372,9.176,19,9.157,18.834
	l-1.155,0.91c-0.526,0.466-1.598,0.549-2.33-0.018c-0.522-0.414-0.986-0.879-1.39-1.389c-0.561-0.676-0.57-1.677-0.008-2.361
	l0.877-1.15l-1.449-0.164c-0.859-0.118-1.534-0.803-1.65-1.664c-0.068-0.661-0.068-1.309-0.004-1.956
	c0.075-0.86,0.768-1.579,1.646-1.698l1.469-0.188L4.253,8C3.694,7.32,3.712,6.31,4.316,5.625c0.37-0.47,0.834-0.935,1.346-1.34
	c0.646-0.531,1.705-0.551,2.365-0.004l1.156,0.898L9.34,3.708c0.116-0.859,0.799-1.536,1.662-1.654
	c0.701-0.07,1.31-0.067,1.956-0.004c0.901,0.123,1.585,0.799,1.7,1.648L14.84,5.15L16,4.258c0.604-0.501,1.678-0.514,2.352,0.037
	c0.498,0.395,0.961,0.86,1.365,1.371c0.561,0.679,0.568,1.678,0.01,2.361l0,0c0,0-0.451,0.585-0.711,0.93v0.002l-0.187,0.25
	c0.114-0.031,0.997,0.081,1.452,0.131c0.875,0.119,1.551,0.803,1.667,1.666c0.067,0.662,0.067,1.308,0.004,1.955
	c-0.12,0.898-0.796,1.583-1.646,1.7c-0.43,0.048-1.184,0.144-1.449,0.176c0.104,0.149,0.611,0.808,0.887,1.164
	c0.543,0.659,0.533,1.659-0.039,2.353c-0.391,0.494-0.854,0.959-1.367,1.365c-0.598,0.532-1.734,0.557-2.386-0.012l-1.169-0.896
	l-0.123,1.486c-0.116,0.86-0.801,1.537-1.663,1.654C12.624,21.979,12.302,21.998,11.999,21.998z M11.314,19.969
	c0.453,0.029,0.917,0.029,1.37,0l0.178-1.42c0.201-1.016,1.022-1.699,1.968-1.699c0.433,0,0.846,0.131,1.162,0.368l1.159,0.89
	c0.367-0.303,0.681-0.616,0.955-0.957c-0.471-0.607-0.737-0.955-0.891-1.183l-0.004,0.003c-0.238-0.322-0.365-0.717-0.365-1.14
	c0-0.942,0.666-1.765,1.586-1.954c0.07-0.012,1.002-0.131,1.536-0.191c0.041-0.462,0.041-0.921,0.001-1.369
	c-0.533-0.062-1.462-0.179-1.462-0.179l-0.114-0.022c-0.912-0.227-1.547-1.034-1.547-1.963c0-0.404,0.129-0.802,0.364-1.12
	l0.006,0.004c0.152-0.227,0.421-0.575,0.89-1.185c-0.291-0.358-0.609-0.676-0.957-0.958l-1.271,0.963
	c-1.323,0.738-2.746-0.04-3.005-1.332L12.684,4.03c-0.46-0.04-0.92-0.04-1.37,0l-0.178,1.423c-0.162,1.001-0.987,1.701-1.967,1.701
	c-0.403,0-0.802-0.122-1.151-0.354L6.832,5.884c-0.319,0.281-0.647,0.61-0.939,0.97l0.85,1.113c0.263,0.336,0.411,0.761,0.411,1.187
	c0,0.997-0.72,1.83-1.712,1.981l-1.41,0.182c-0.042,0.468-0.042,0.926-0.001,1.371l1.387,0.179c0.984,0.112,1.736,0.959,1.736,1.966
	c0,0.443-0.145,0.863-0.418,1.214L5.894,17.15c0.292,0.358,0.609,0.676,0.956,0.957l1.107-0.861
	c1.403-0.943,2.952-0.096,3.175,1.266l0.013,0.104C11.171,18.839,11.28,19.704,11.314,19.969z M11.999,15.057
	c-1.684,0-3.054-1.369-3.054-3.055c0-1.685,1.37-3.055,3.054-3.055c1.685,0,3.056,1.37,3.056,3.055
	C15.055,13.688,13.684,15.057,11.999,15.057z M11.999,9.948c-1.133,0-2.054,0.922-2.054,2.055s0.921,2.056,2.054,2.056
	s2.056-0.923,2.056-2.056S13.132,9.948,11.999,9.948z"/>
</svg>
