<?xml version="1.0" encoding="utf-8"?>
<!-- Generator: Adobe Illustrator 15.1.0, SVG Export Plug-In . SVG Version: 6.00 Build 0)  -->
<!DOCTYPE svg PUBLIC "-//W3C//DTD SVG 1.1//EN" "http://www.w3.org/Graphics/SVG/1.1/DTD/svg11.dtd">
<svg version="1.1" id="Layer_1" xmlns="http://www.w3.org/2000/svg" xmlns:xlink="http://www.w3.org/1999/xlink" x="0px" y="0px"
	 width="24px" height="24px" viewBox="0 0 24 24" enable-background="new 0 0 24 24" xml:space="preserve">
<g>
	<path d="M20,5v12H4V5H20 M20,3H4C2.9,3,2,3.9,2,5v12c0,1.1,0.9,2,2,2h16c1.1,0,2-0.9,2-2V5C22,3.9,21.1,3,20,3L20,3z"/>
</g>
<g>
	<path d="M18,7v8H6V7H18 M19,6H5v10h14V6L19,6z"/>
</g>
<path d="M16,17H8c-1.1,0-2,0.9-2,2v1c0,1.1,0.9,2,2,2h8c1.1,0,2-0.9,2-2v-1C18,17.9,17.1,17,16,17z M16,20H8v-1h8V20z"/>
</svg>
