<?xml version="1.0" encoding="utf-8"?>
<!-- Generator: Adobe Illustrator 15.1.0, SVG Export Plug-In . SVG Version: 6.00 Build 0)  -->
<!DOCTYPE svg PUBLIC "-//W3C//DTD SVG 1.1//EN" "http://www.w3.org/Graphics/SVG/1.1/DTD/svg11.dtd">
<svg version="1.1" id="Layer_1" xmlns="http://www.w3.org/2000/svg" xmlns:xlink="http://www.w3.org/1999/xlink" x="0px" y="0px"
	 width="24px" height="24px" viewBox="0 0 24 24" enable-background="new 0 0 24 24" xml:space="preserve">
<path d="M16.375,5c0.969,0,1.879,0.377,2.562,1.062C19.622,6.747,20,7.657,20,8.625s-0.377,1.878-1.066,2.568L12,18.186
	l-6.939-6.998C4.377,10.503,4,9.593,4,8.625s0.377-1.879,1.062-2.563S6.656,5,7.625,5c0.966,0,1.873,0.375,2.558,1.057l0.008,0.008
	l0.228,0.228h0.001l0.168,0.168L12,7.872l1.413-1.412l0.396-0.396l0.041-0.04C14.529,5.363,15.425,5,16.375,5 M16.375,3
	c-1.502,0-2.915,0.585-3.978,1.647c0,0.001-0.001,0.001-0.001,0.002V4.65L12,5.045L11.604,4.65
	c-0.001-0.001-0.001-0.002-0.002-0.002V4.647C10.54,3.585,9.127,3,7.625,3S4.71,3.585,3.647,4.647S2,7.123,2,8.625
	s0.585,2.914,1.646,3.977l7.467,7.528c0.235,0.237,0.554,0.37,0.888,0.37c0.333,0,0.651-0.133,0.888-0.37l7.467-7.528
	C21.415,11.539,22,10.127,22,8.625s-0.585-2.915-1.646-3.978C19.291,3.584,17.877,3,16.375,3L16.375,3z"/>
</svg>
