<?xml version="1.0" encoding="utf-8"?>
<!-- Generator: Adobe Illustrator 15.1.0, SVG Export Plug-In . SVG Version: 6.00 Build 0)  -->
<!DOCTYPE svg PUBLIC "-//W3C//DTD SVG 1.1//EN" "http://www.w3.org/Graphics/SVG/1.1/DTD/svg11.dtd">
<svg version="1.1" id="Layer_1" xmlns="http://www.w3.org/2000/svg" xmlns:xlink="http://www.w3.org/1999/xlink" x="0px" y="0px"
	 width="24px" height="24px" viewBox="0 0 24 24" enable-background="new 0 0 24 24" xml:space="preserve">
<g class="on">
	<path d="M20,5v12H4V5H20 M20,3H4C2.9,3,2,3.9,2,5v12c0,1.1,0.9,2,2,2h16c1.1,0,2-0.9,2-2V5C22,3.9,21.1,3,20,3L20,3z"/>
	<path d="M18,7v8H6V7H18 M19,6H5v10h14V6L19,6z"/>
	<path d="M16,17H8c-1.1,0-2,0.9-2,2v1c0,1.1,0.9,2,2,2h8c1.1,0,2-0.9,2-2v-1C18,17.9,17.1,17,16,17z M16,20H8v-1h8V20z"/>
</g>
<g class="off">
	<polygon points="19,8.121 18,9.121 18,15 12.121,15 11.121,16 19,16 	"/>
	<polygon points="5,15.879 6,14.879 6,7 13.879,7 14.879,6 5,6 	"/>
	<path d="M4,16.879V5h11.879l2-2H4C2.9,3,2,3.9,2,5v12c0,0.52,0.205,0.989,0.533,1.346L4,16.879z"/>
	<path d="M20,7.121V17h-4h-5.879l-2,2H16v1H8v-0.879l-1.776,1.776C6.555,21.548,7.225,22,8,22h8c1.1,0,2-0.9,2-2v-1h2
		c1.1,0,2-0.9,2-2V5.121L20,7.121z"/>
	<polygon class="red" fill-rule="evenodd" clip-rule="evenodd" points="1.913,20.879 20.879,1.996 22,3.117 3.034,22 "/>
</g>
</svg>
