<?xml version="1.0" encoding="utf-8"?>
<!-- Generator: Adobe Illustrator 17.1.0, SVG Export Plug-In . SVG Version: 6.00 Build 0)  -->
<!DOCTYPE svg PUBLIC "-//W3C//DTD SVG 1.0//EN" "http://www.w3.org/TR/2001/REC-SVG-20010904/DTD/svg10.dtd">
<svg version="1.0" id="Layer_1" xmlns="http://www.w3.org/2000/svg" xmlns:xlink="http://www.w3.org/1999/xlink" x="0px" y="0px"
	 width="24px" height="24px" viewBox="0 0 24 24" enable-background="new 0 0 24 24" xml:space="preserve">
<path fill="#231F20" d="M19.1,4.9C15.2,1,8.8,1,4.9,4.9S1,15.2,4.9,19.1c3.9,3.9,10.2,3.9,14.1,0S23,8.8,19.1,4.9z M13.8,15.5
	L12,13.6l-1.8,1.8c-0.5,0.5-1.2,0.5-1.6,0s-0.5-1.2,0-1.6l1.8-1.8l-1.8-1.8C8.1,9.7,8.1,9,8.5,8.5c0.5-0.5,1.2-0.5,1.6,0l1.8,1.8
	l1.8-1.8c0.5-0.5,1.2-0.5,1.6,0c0.5,0.5,0.5,1.2,0,1.6L13.6,12l1.8,1.8c0.5,0.5,0.5,1.2,0,1.6S14.3,15.9,13.8,15.5z"/>
</svg>
