<?xml version="1.0" encoding="utf-8"?>
<!-- Generator: Adobe Illustrator 15.1.0, SVG Export Plug-In . SVG Version: 6.00 Build 0)  -->
<!DOCTYPE svg PUBLIC "-//W3C//DTD SVG 1.1//EN" "http://www.w3.org/Graphics/SVG/1.1/DTD/svg11.dtd">
<svg version="1.1" id="Layer_1" xmlns="http://www.w3.org/2000/svg" xmlns:xlink="http://www.w3.org/1999/xlink" x="0px" y="0px"
	 width="24px" height="24px" viewBox="0 0 24 24" enable-background="new 0 0 24 24" xml:space="preserve">
<path d="M15.125,4.969C17.812,4.969,20,7.462,20,10.5c0,2.869-2.188,5.5-4.875,5.5h-1.982h-0.828l-0.586,0.585L10,19v-2.973
	l-2.012-0.113C5.677,15.486,4,13.365,4,10.435c0-3.014,2.187-5.466,4.875-5.466L15.125,5 M15.125,3h-6.25C5.084,3,2,6.498,2,10.435
	C2,14.227,4.804,17.41,8,18v2.807c0,0.506,0.305,0.963,0.771,1.155c0.155,0.063-0.058,0.095,0.103,0.095
	c0.326,0,0.646-0.123,0.885-0.363l3.384-3.756h1.982c3.791,0,6.875-3.192,6.875-7.438C22,6.049,18.916,3,15.125,3L15.125,3z"/>
</svg>
