<?xml version="1.0" encoding="utf-8"?>
<!-- Generator: Adobe Illustrator 17.1.0, SVG Export Plug-In . SVG Version: 6.00 Build 0)  -->
<!DOCTYPE svg PUBLIC "-//W3C//DTD SVG 1.0//EN" "http://www.w3.org/TR/2001/REC-SVG-20010904/DTD/svg10.dtd">
<svg version="1.0" id="Layer_1" xmlns="http://www.w3.org/2000/svg" xmlns:xlink="http://www.w3.org/1999/xlink" x="0px" y="0px"
	 width="24px" height="24px" viewBox="0 0 24 24" enable-background="new 0 0 24 24" xml:space="preserve">
<g class="on">
	<polygon points="9,11.9 7,9.9 9,7.9 9.7,8.7 8.5,9.9 9.7,11.2 	"/>
	<polygon points="14.9,14.1 14.1,13.3 15.4,12 14.1,10.7 14.9,9.9 17,12 	"/>
	<polygon points="8.5,9.4 8.5,10.4 13,10.4 13,9.4"/>
	<polygon points="11,11.4 11,12.4 15.4,12.4 15.4,11.4"/>
</g>
<g class="off">
	<polygon points="9,11.9 7,9.9 9,7.9 9.7,8.7 8.5,9.9 9.7,11.2 	"/>
	<polygon points="11,11.4 11,12.4 15.4,12.4 15.4,11.4"/>
</g>
</svg>
