<?xml version="1.0" encoding="utf-8"?>
<!-- Generator: Adobe Illustrator 15.1.0, SVG Export Plug-In . SVG Version: 6.00 Build 0)  -->
<!DOCTYPE svg PUBLIC "-//W3C//DTD SVG 1.1//EN" "http://www.w3.org/Graphics/SVG/1.1/DTD/svg11.dtd">
<svg version="1.1" id="Layer_1" xmlns="http://www.w3.org/2000/svg" xmlns:xlink="http://www.w3.org/1999/xlink" x="0px" y="0px"
	 width="24px" height="24px" viewBox="0 0 24 24" enable-background="new 0 0 24 24" xml:space="preserve">
<g>
	<path d="M9,6c1.654,0,3,1.346,3,3s-1.346,3-3,3s-3-1.346-3-3S7.346,6,9,6 M9,4C6.239,4,4,6.239,4,9s2.239,5,5,5
		c2.762,0,5-2.239,5-5S11.762,4,9,4L9,4z"/>
</g>
<g>
	<path d="M9,14c2.762,0,5,2.238,5,5H4C4,16.238,6.238,14,9,14 M9,12c-3.86,0-7,3.141-7,7c0,1.104,0.896,2,2,2h10
		c1.104,0,2-0.896,2-2C16,15.141,12.859,12,9,12L9,12z"/>
</g>
<g>
	<path d="M21,12h-4c-0.553,0-1-0.448-1-1s0.447-1,1-1h4c0.553,0,1,0.448,1,1S21.553,12,21,12z"/>
</g>
<g>
	<path d="M19,14c-0.553,0-1-0.448-1-1V9c0-0.552,0.447-1,1-1s1,0.448,1,1v4C20,13.552,19.553,14,19,14z"/>
</g>
</svg>
