<?xml version="1.0" encoding="utf-8"?>
<!-- Generator: Adobe Illustrator 15.1.0, SVG Export Plug-In . SVG Version: 6.00 Build 0)  -->
<!DOCTYPE svg PUBLIC "-//W3C//DTD SVG 1.1//EN" "http://www.w3.org/Graphics/SVG/1.1/DTD/svg11.dtd">
<svg version="1.1" id="Layer_1" xmlns="http://www.w3.org/2000/svg" xmlns:xlink="http://www.w3.org/1999/xlink" x="0px" y="0px"
	 width="24px" height="24px" viewBox="0 0 24 24" enable-background="new 0 0 24 24" xml:space="preserve">
<path d="M11.969,15C14.902,15,16,13.95,16,12.075V4.044C16,2.231,14.062,1,12.031,1S8,2.325,8,4.013v8.062
	C8,13.856,9.035,15,11.969,15z M10,4c0-0.354,0-1,2.031-1C14,3,14,3.53,14,4.044V12c0,0.501,0,1.094-2.031,1.094
	C10,13.094,10,12.478,10,12V4z"/>
<path d="M18,8c-0.553,0-1,0.494-1,1.047v2.997c0,2.382-0.746,3.969-5,3.969c-4.189,0-5.031-1.519-5.031-3.969L7,9.022
	C7,8.47,6.552,8,6,8S5,8.47,5,9.022v3.021c0,3.721,1.951,5.667,6,5.934V20H8.031C7.479,20,7,20.491,7,21.044S7.448,22,8,22h8
	c0.553,0,1-0.403,1-0.956S16.584,20,16.031,20H13v-2.021c4.099-0.264,6-2.21,6-5.935V9.047C19,8.494,18.553,8,18,8z"/>
</svg>
