
<svg version="1.0" id="Layer_1" xmlns="http://www.w3.org/2000/svg" xmlns:xlink="http://www.w3.org/1999/xlink" x="0px" y="0px"
	 width="24px" height="24px" viewBox="0 0 24 24" enable-background="new 0 0 24 24" xml:space="preserve">
<path d="M5,19C1.1,15.1,1.1,8.9,5,5s10.1-3.9,14,0s3.9,10.1,0,14S8.9,22.9,5,19z M17.7,6.3c-3.2-3.2-8.3-3.2-11.5,0s-3.2,8.3,0,11.5
	s8.3,3.2,11.5,0S20.9,9.5,17.7,6.3z"/>
<path d="M15.3,13.9L13.4,12l1.9-1.9c0.4-0.4,0.4-1,0-1.4c-0.4-0.4-1-0.4-1.4,0L12,10.6l-2-2c-0.4-0.4-1-0.4-1.4,0
	c-0.4,0.4-0.4,1,0,1.4l2,2l-1.9,1.9c-0.4,0.4-0.4,1,0,1.4c0.4,0.4,1,0.4,1.4,0l1.9-1.9l1.9,1.9c0.4,0.4,1,0.4,1.4,0
	C15.7,14.9,15.7,14.3,15.3,13.9z"/>
</svg>
