<?xml version="1.0" encoding="utf-8"?>
<!-- Generator: Adobe Illustrator 15.1.0, SVG Export Plug-In . SVG Version: 6.00 Build 0)  -->
<!DOCTYPE svg PUBLIC "-//W3C//DTD SVG 1.1//EN" "http://www.w3.org/Graphics/SVG/1.1/DTD/svg11.dtd">
<svg version="1.1" id="Layer_1" xmlns="http://www.w3.org/2000/svg" xmlns:xlink="http://www.w3.org/1999/xlink" x="0px" y="0px"
	 width="24px" height="24px" viewBox="0 0 24 24" enable-background="new 0 0 24 24" xml:space="preserve">
<path fill-rule="evenodd" clip-rule="evenodd" fill="#57CD9B" d="M17.5,6C18.328,6,19,6.672,19,7.5v13c0,0.828-0.672,1.5-1.5,1.5
	S16,21.328,16,20.5v-13C16,6.672,16.672,6,17.5,6z"/>
<path fill-rule="evenodd" clip-rule="evenodd" fill="#C6C6C6" d="M22.5,2C23.328,2,24,2.672,24,3.5v17c0,0.828-0.672,1.5-1.5,1.5
	S21,21.328,21,20.5v-17C21,2.672,21.672,2,22.5,2z"/>
<path fill-rule="evenodd" clip-rule="evenodd" fill="#57CD9B" d="M12.5,10c0.828,0,1.5,0.672,1.5,1.5v9c0,0.828-0.672,1.5-1.5,1.5
	S11,21.328,11,20.5v-9C11,10.672,11.672,10,12.5,10z"/>
<path fill-rule="evenodd" clip-rule="evenodd" fill="#57CD9B" d="M7.5,14C8.328,14,9,14.672,9,15.5v5C9,21.328,8.328,22,7.5,22
	S6,21.328,6,20.5v-5C6,14.672,6.672,14,7.5,14z"/>
<path fill-rule="evenodd" clip-rule="evenodd" fill="#57CD9B" d="M2.5,18C3.328,18,4,18.672,4,19.5v1C4,21.328,3.328,22,2.5,22
	S1,21.328,1,20.5v-1C1,18.672,1.672,18,2.5,18z"/>
</svg>
