<?xml version="1.0" encoding="utf-8"?>
<!-- Generator: Adobe Illustrator 16.0.0, SVG Export Plug-In . SVG Version: 6.00 Build 0)  -->
<!DOCTYPE svg PUBLIC "-//W3C//DTD SVG 1.1//EN" "http://www.w3.org/Graphics/SVG/1.1/DTD/svg11.dtd">
<svg version="1.1" id="Layer_1" xmlns="http://www.w3.org/2000/svg" xmlns:xlink="http://www.w3.org/1999/xlink" x="0px" y="0px"
	 width="41.012px" height="40.967px" viewBox="0 0 41.012 40.967" enable-background="new 0 0 41.012 40.967" xml:space="preserve">
<circle fill="#FFFFFF" cx="21" cy="18.967" r="16"/>
<path fill="#FFFFFF" d="M21,40.967c-11.19,0-21-9.809-21-21C0,8.776,9.809,0,21,0c11.19,0,20.012,8.775,20.012,19.967
	C41.011,31.159,32.191,40.967,21,40.967z"/>
<g>
	<g>
		<path fill="#169DD8" d="M23.251,15.132c0.312,0,0.537,0.253,0.5,0.563l-2.078,17.342c-0.037,0.31-0.322,0.562-0.635,0.562H17.78
			c-0.312,0-0.537-0.253-0.5-0.562l2.079-17.342c0.037-0.31,0.322-0.563,0.634-0.563H23.251z M24.935,9.75
			c0,0.384-0.08,0.744-0.242,1.08s-0.373,0.63-0.63,0.882c-0.259,0.252-0.556,0.453-0.892,0.603
			c-0.336,0.15-0.685,0.225-1.044,0.225c-0.348,0-0.688-0.075-1.018-0.225c-0.33-0.15-0.621-0.351-0.873-0.603
			s-0.453-0.546-0.603-0.882s-0.225-0.696-0.225-1.08c0-0.384,0.078-0.75,0.234-1.098c0.156-0.348,0.36-0.65,0.612-0.909
			c0.252-0.258,0.543-0.462,0.873-0.612c0.33-0.15,0.669-0.225,1.017-0.225c0.36,0,0.708,0.075,1.045,0.225
			c0.336,0.15,0.633,0.351,0.891,0.603c0.258,0.252,0.465,0.552,0.62,0.9C24.857,8.982,24.935,9.354,24.935,9.75z"/>
	</g>
</g>
</svg>
