<?xml version="1.0" encoding="utf-8"?>
<!-- Generator: Adobe Illustrator 15.1.0, SVG Export Plug-In . SVG Version: 6.00 Build 0)  -->
<!DOCTYPE svg PUBLIC "-//W3C//DTD SVG 1.0//EN" "http://www.w3.org/TR/2001/REC-SVG-20010904/DTD/svg10.dtd">
<svg version="1.0" id="Layer_1" xmlns="http://www.w3.org/2000/svg" xmlns:xlink="http://www.w3.org/1999/xlink" x="0px" y="0px"
	 width="40px" height="40px" viewBox="0 0 40 40" enable-background="new 0 0 40 40" xml:space="preserve">
<path fill="#4ECE97" d="M20.013,0C31.051,0,40,8.956,40,19.999C40,31.046,31.051,40,20.013,40C8.973,40,0.023,31.046,0.023,19.999
	C0.023,8.956,8.973,0,20.013,0z"/>
<path fill="#FFFFFF" d="M16.486,12.296c0,0,2.013,3.602,2.166,3.927c-0.839,0.502-1.484,1.865-2.128,1.994
	c0.902,2.318,3.276,4.087,5.338,5.248c0.654-1.156,2.282-1.929,2.282-1.929l3.42,2.097c0,0.772-1.031,2.705-2.834,3.221
	C24.377,26.953,24.026,27,23.68,27c-2.426,0-4.694-2.287-6.807-4.399c-2.704-2.704-3.993-5.796-3.864-7.084
	C13.137,14.228,14.561,12.894,16.486,12.296 M17.441,9.905l-1.548,0.48c-2.707,0.841-4.666,2.823-4.875,4.933
	c-0.225,2.241,1.644,5.899,4.44,8.696l0.048,0.048C17.821,26.377,20.444,29,23.68,29c0.539,0,1.077-0.075,1.6-0.225
	c2.655-0.759,4.285-3.508,4.285-5.144v-1.12l-0.955-0.585l-3.42-2.097l-0.924-0.566l-0.979,0.464
	c-0.224,0.106-1.005,0.5-1.791,1.157c-1.05-0.722-1.88-1.482-2.448-2.24c0.024-0.029,0.048-0.059,0.072-0.087
	c0.166-0.202,0.444-0.54,0.567-0.624l1.554-0.931l-0.78-1.633c-0.158-0.337-1.465-2.682-2.229-4.049L17.441,9.905L17.441,9.905z"/>
</svg>
