<?xml version="1.0" encoding="utf-8"?>
<!-- Generator: Adobe Illustrator 15.1.0, SVG Export Plug-In . SVG Version: 6.00 Build 0)  -->
<!DOCTYPE svg PUBLIC "-//W3C//DTD SVG 1.0//EN" "http://www.w3.org/TR/2001/REC-SVG-20010904/DTD/svg10.dtd">
<svg version="1.0" id="Layer_1" xmlns="http://www.w3.org/2000/svg" xmlns:xlink="http://www.w3.org/1999/xlink" x="0px" y="0px"
	 width="40px" height="40px" viewBox="0 0 40 40" enable-background="new 0 0 40 40" xml:space="preserve">
<path fill="#FFFFFF" d="M20.084,0C31.121,0,40,8.986,40,20.023C40,31.064,31.037,40,20,40C8.96,40,0,31.041,0,20
	C0,8.963,9.044,0,20.084,0z"/>
<path fill="#5DC093" d="M25.297,12.944l2.401,1.796L18.61,26.641l-6.391-4.883l1.771-2.318l3.909,3.177L25.297,12.944
	 M25.107,10.556c-0.306,0-0.608,0.137-0.806,0.396l-6.753,8.766l-3.131-2.486c-0.181-0.142-0.396-0.211-0.608-0.211
	c-0.297,0-0.591,0.134-0.784,0.389l-3.002,3.929c-0.334,0.438-0.25,1.068,0.188,1.402l7.979,6.096
	c0.438,0.334,0.795,0.607,0.795,0.607l0,0c0.001,0,0.274-0.357,0.608-0.795l10.314-13.505c0.334-0.438,0.247-1.064-0.193-1.394
	l-4.004-2.994C25.53,10.622,25.318,10.556,25.107,10.556L25.107,10.556z"/>
</svg>
