<?xml version="1.0" encoding="utf-8"?>
<!-- Generator: Adobe Illustrator 15.1.0, SVG Export Plug-In . SVG Version: 6.00 Build 0)  -->
<!DOCTYPE svg PUBLIC "-//W3C//DTD SVG 1.0//EN" "http://www.w3.org/TR/2001/REC-SVG-20010904/DTD/svg10.dtd">
<svg version="1.0" id="Layer_1" xmlns="http://www.w3.org/2000/svg" xmlns:xlink="http://www.w3.org/1999/xlink" x="0px" y="0px"
	 width="40px" height="40px" viewBox="0 0 40 40" enable-background="new 0 0 40 40" xml:space="preserve">
<path fill="#4ECE97" d="M19.989-0.012c11.038,0,19.987,8.956,19.987,19.999c0,11.047-8.949,20.001-19.987,20.001
	C8.949,39.988,0,31.034,0,19.987C0,8.944,8.949-0.012,19.989-0.012z"/>
<path fill="#FFFFFF" d="M28,13v12H12V13H28 M28,11H12c-1.1,0-2,0.9-2,2v12c0,1.101,0.9,2,2,2h16c1.1,0,2-0.899,2-2V13
	C30,11.9,29.1,11,28,11L28,11z"/>
<path fill="#FFFFFF" d="M26,15v8H14v-8H26 M27,14H13v10h14V14L27,14z"/>
<path fill="#FFFFFF" d="M24,25h-8c-1.1,0-2,0.9-2,2v1c0,1.1,0.9,2,2,2h8c1.1,0,2-0.9,2-2v-1C26,25.9,25.1,25,24,25z M24,28h-8v-1h8
	V28z"/>
</svg>
