<?xml version="1.0" encoding="utf-8"?>
<!-- Generator: Adobe Illustrator 15.1.0, SVG Export Plug-In . SVG Version: 6.00 Build 0)  -->
<!DOCTYPE svg PUBLIC "-//W3C//DTD SVG 1.1//EN" "http://www.w3.org/Graphics/SVG/1.1/DTD/svg11.dtd">
<svg version="1.1" id="Layer_1" xmlns="http://www.w3.org/2000/svg" xmlns:xlink="http://www.w3.org/1999/xlink" x="0px" y="0px"
	 width="41.012px" height="40.967px" viewBox="0 0 41.012 40.967" enable-background="new 0 0 41.012 40.967" xml:space="preserve">
<path fill="#FF7D63" d="M21,40.967c-11.19,0-21-9.809-21-21C0,8.776,9.809,0,21,0c11.191,0,20.012,8.775,20.012,19.967
	C41.011,31.159,32.191,40.967,21,40.967z"/>
<path fill="#FFFFFF" d="M27.188,22.75l2.125,1.375c0.168,0.106,0.354,0.16,0.542,0.16c0.328,0,0.648-0.162,0.841-0.457
	c0.3-0.466,0.167-1.082-0.297-1.384l-2.125-1.375c-0.464-0.3-1.083-0.167-1.383,0.298C26.592,21.83,26.725,22.449,27.188,22.75z"/>
<path fill="#FFFFFF" d="M9.729,17.793c0,0.553,0.446,1,1,1h2.5c0.553,0,1-0.447,1-1c0-0.553-0.447-1-1-1h-2.5
	C10.177,16.793,9.729,17.24,9.729,17.793z"/>
<path fill="#FFFFFF" d="M14.585,12.443l-2.125-1.375c-0.463-0.299-1.083-0.166-1.383,0.297c-0.3,0.465-0.167,1.082,0.297,1.383
	l2.125,1.375c0.168,0.109,0.355,0.16,0.542,0.16c0.328,0,0.649-0.16,0.841-0.457C15.182,13.363,15.049,12.744,14.585,12.443z"/>
<path fill="#FFFFFF" d="M14.882,21.367c-0.301-0.465-0.919-0.598-1.383-0.298l-2.125,1.375c-0.464,0.302-0.597,0.918-0.297,1.384
	c0.191,0.295,0.513,0.457,0.841,0.457c0.188,0,0.374-0.054,0.542-0.16l2.125-1.375C15.049,22.449,15.182,21.83,14.882,21.367z"/>
<path fill="#FFFFFF" d="M30.696,11.365c-0.301-0.463-0.92-0.596-1.383-0.297l-2.125,1.375c-0.464,0.301-0.598,0.92-0.297,1.383
	c0.19,0.297,0.513,0.457,0.841,0.457c0.187,0,0.374-0.051,0.542-0.16l2.125-1.375C30.863,12.447,30.996,11.83,30.696,11.365z"/>
<path fill="#FFFFFF" d="M31.044,16.793h-2.5c-0.553,0-1,0.447-1,1c0,0.553,0.447,1,1,1h2.5c0.554,0,1-0.447,1-1
	C32.044,17.24,31.597,16.793,31.044,16.793z"/>
<path fill="#FFFFFF" d="M20.981,10.967c-3.526,0-5.431,3.141-5.431,6.002c0,1.432,0.604,2.377,1.188,3.289
	c0.504,0.789,1.025,1.421,1.258,2.709c0.086,0.476,0.521,1,1.003,1l4,0.007c0.493,0,0.844-0.519,0.92-1.007
	c0.197-1.268,0.723-1.864,1.276-2.664c0.628-0.906,1.278-1.844,1.278-3.332C26.475,14.107,24.55,10.967,20.981,10.967z
	 M23.552,19.162c-0.491,0.711-1.085,1.565-1.428,2.812h-2.349c-0.349-1.224-0.896-2.079-1.352-2.792
	c-0.507-0.793-0.873-1.365-0.873-2.213c0-1.57,0.913-4.002,3.431-4.002c2.562,0,3.493,2.434,3.493,4.004
	C24.474,17.834,24.087,18.391,23.552,19.162z"/>
<path fill="#FFFFFF" d="M22.938,24.983h-3.933c-0.553,0-1.019,0.447-1.019,1v2c0,1.013,0.972,2,2.019,2h2c1.021,0,2-0.979,2-2v-2
	C24.006,25.431,23.49,24.983,22.938,24.983z M22.006,27.983h-2v-1h2V27.983z"/>
</svg>
