<?xml version="1.0" encoding="utf-8"?>
<!-- Generator: Adobe Illustrator 16.0.0, SVG Export Plug-In . SVG Version: 6.00 Build 0)  -->
<!DOCTYPE svg PUBLIC "-//W3C//DTD SVG 1.1//EN" "http://www.w3.org/Graphics/SVG/1.1/DTD/svg11.dtd">
<svg version="1.1" id="Layer_1" xmlns="http://www.w3.org/2000/svg" xmlns:xlink="http://www.w3.org/1999/xlink" x="0px" y="0px"
	 width="41.012px" height="40.967px" viewBox="0 0 41.012 40.967" enable-background="new 0 0 41.012 40.967" xml:space="preserve">
<circle fill="#FFFFFF" cx="21" cy="18.967" r="16"/>
<path fill="#FFFFFF" d="M21,40.967c-11.19,0-21-9.809-21-21C0,8.776,9.809,0,21,0c11.19,0,20.012,8.775,20.012,19.967
	C41.011,31.159,32.191,40.967,21,40.967z"/>
<g enable-background="new    ">
	<path fill="#FFD17A" d="M17.779,30.831c0-0.371,0.069-0.726,0.207-1.062c0.138-0.336,0.33-0.624,0.576-0.864
		s0.537-0.432,0.873-0.576c0.336-0.144,0.696-0.216,1.08-0.216c0.372,0,0.726,0.072,1.062,0.216
		c0.336,0.145,0.624,0.336,0.864,0.576s0.433,0.528,0.576,0.864s0.216,0.69,0.216,1.062c0,0.385-0.072,0.741-0.216,1.071
		s-0.336,0.615-0.576,0.854c-0.24,0.24-0.528,0.43-0.864,0.567s-0.69,0.207-1.062,0.207c-0.384,0-0.744-0.069-1.08-0.207
		s-0.627-0.327-0.873-0.567c-0.246-0.239-0.438-0.524-0.576-0.854C17.848,31.572,17.779,31.216,17.779,30.831z M22.656,7.251v10.296
		c0,1.093-0.054,2.163-0.162,3.214c-0.107,1.05-0.252,2.163-0.432,3.339h-3.006c-0.18-1.176-0.324-2.289-0.432-3.339
		c-0.108-1.051-0.162-2.121-0.162-3.214V7.251H22.656z"/>
</g>
</svg>
