<?xml version="1.0" encoding="utf-8"?>
<!-- Generator: Adobe Illustrator 15.1.0, SVG Export Plug-In . SVG Version: 6.00 Build 0)  -->
<!DOCTYPE svg PUBLIC "-//W3C//DTD SVG 1.0//EN" "http://www.w3.org/TR/2001/REC-SVG-20010904/DTD/svg10.dtd">
<svg version="1.0" id="Layer_1" xmlns="http://www.w3.org/2000/svg" xmlns:xlink="http://www.w3.org/1999/xlink" x="0px" y="0px"
	 width="40px" height="40px" viewBox="0 0 40 40" enable-background="new 0 0 40 40" xml:space="preserve">
<path fill="#FFFFFF" d="M20.084,0C31.121,0,40,8.986,40,20.023C40,31.064,31.037,40,20,40C8.96,40,0,31.041,0,20
	C0,8.963,9.044,0,20.084,0z"/>
<path fill="#1C9DD8" d="M22,18.98V29h-3.047V18.98H22z M23,17.004h-5c-0.55,0-1,0.45-1,1v11.953c0,0.55,0.45,1,1,1h5
	c0.55,0,1-0.45,1-1V18.004c0-0.55-0.497-1-1.047-1H23z"/>
<path fill="#1C9DD8" d="M20.516,9.781c0.938,0,1.703,0.801,1.703,1.783c0,0.944-0.732,1.654-1.703,1.654
	c-0.973,0-1.734-0.727-1.734-1.654C18.781,10.598,19.576,9.781,20.516,9.781 M20.514,8.023C18.574,8.023,17,9.617,17,11.557
	C17,13.495,18.574,15,20.514,15S24,13.495,24,11.557C24,9.617,22.453,8.023,20.514,8.023L20.514,8.023z"/>
</svg>
