<?xml version="1.0" encoding="utf-8"?>
<!-- Generator: Adobe Illustrator 15.1.0, SVG Export Plug-In . SVG Version: 6.00 Build 0)  -->
<!DOCTYPE svg PUBLIC "-//W3C//DTD SVG 1.0//EN" "http://www.w3.org/TR/2001/REC-SVG-20010904/DTD/svg10.dtd">
<svg version="1.0" id="Layer_1" xmlns="http://www.w3.org/2000/svg" xmlns:xlink="http://www.w3.org/1999/xlink" x="0px" y="0px"
	 width="40px" height="40px" viewBox="0 0 40 40" enable-background="new 0 0 40 40" xml:space="preserve">
<path fill="#FFFFFF" d="M20.084,0C31.121,0,40,8.986,40,20.023C40,31.064,31.037,40,20,40C8.96,40,0,31.041,0,20
	C0,8.963,9.044,0,20.084,0z"/>
<path fill="#EF5548" d="M24.685,12.376l2.502,2.5l-2.51,2.51c-0.565,0.565-2.121,2.121-2.121,2.121s1.556,1.556,2.121,2.121
	l2.41,2.41l-2.501,2.501l-4.504-4.503l-4.563,4.508l-2.502-2.5l4.537-4.537l-4.576-4.575l2.502-2.501l2.453,2.454
	c0.565,0.565,2.149,2.094,2.149,2.094s1.527-1.528,2.093-2.093L24.685,12.376 M24.685,9.964c-0.256,0-0.513,0.097-0.707,0.291
	l-3.896,3.871l-3.896-3.816c-0.194-0.194-0.451-0.291-0.707-0.291s-0.513,0.097-0.707,0.291l-3.916,3.915
	c-0.389,0.389-0.389,1.025,0,1.414l3.822,3.821l-3.783,3.877c-0.389,0.389-0.389,1.025,0,1.414l3.916,3.914
	c0.194,0.195,0.451,0.292,0.707,0.292s0.513-0.097,0.707-0.292l3.121-3.122c0.194-0.194,0.735-0.679,0.735-0.679
	s0.484,0.484,0.679,0.679l3.118,3.117c0.194,0.194,0.45,0.292,0.707,0.292s0.513-0.098,0.707-0.292l3.915-3.915
	c0.389-0.389,0.389-1.025,0-1.414L25.47,19.46l3.838-3.877c0.389-0.389,0.389-1.025,0-1.414l-3.916-3.914
	C25.197,10.061,24.94,9.964,24.685,9.964L24.685,9.964z"/>
</svg>
