<?xml version="1.0" encoding="utf-8"?>
<!-- Generator: Adobe Illustrator 15.1.0, SVG Export Plug-In . SVG Version: 6.00 Build 0)  -->
<!DOCTYPE svg PUBLIC "-//W3C//DTD SVG 1.0//EN" "http://www.w3.org/TR/2001/REC-SVG-20010904/DTD/svg10.dtd">
<svg version="1.0" id="Layer_1" xmlns="http://www.w3.org/2000/svg" xmlns:xlink="http://www.w3.org/1999/xlink" x="0px" y="0px"
	 width="40px" height="40px" viewBox="0 0 40 40" enable-background="new 0 0 40 40" xml:space="preserve">
<path fill="#FFFFFF" d="M20.084,0C31.121,0,40,8.986,40,20.023C40,31.064,31.037,40,20,40C8.96,40,0,31.041,0,20
	C0,8.963,9.044,0,20.084,0z"/>
<path fill="#FEC76E" d="M22.948,10.04l-1.502,10h-1.542l-1.515-10H22.948 M24.176,8.04h-7c-0.55,0-0.982,0.449-0.961,0.999
	l1.819,12.011c0.078,0.545,0.592,0.984,1.142,0.984h3c0.55,0,1.063-0.439,1.142-0.984l1.804-12.012
	C25.151,8.489,24.726,8.04,24.176,8.04L24.176,8.04z"/>
<path fill="#FEC76E" d="M20.646,25.821c0.938,0,1.703,0.801,1.703,1.783c0,0.944-0.732,1.654-1.703,1.654
	c-0.973,0-1.734-0.727-1.734-1.654C18.912,26.638,19.707,25.821,20.646,25.821 M20.645,24.04c-1.939,0-3.514,1.617-3.514,3.557
	c0,1.938,1.574,3.443,3.514,3.443s3.486-1.505,3.486-3.443C24.131,25.657,22.584,24.04,20.645,24.04L20.645,24.04z"/>
</svg>
