<?xml version="1.0" encoding="utf-8"?>
<!-- Generator: Adobe Illustrator 15.1.0, SVG Export Plug-In . SVG Version: 6.00 Build 0)  -->
<!DOCTYPE svg PUBLIC "-//W3C//DTD SVG 1.0//EN" "http://www.w3.org/TR/2001/REC-SVG-20010904/DTD/svg10.dtd">
<svg version="1.0" id="Layer_1" xmlns="http://www.w3.org/2000/svg" xmlns:xlink="http://www.w3.org/1999/xlink" x="0px" y="0px"
	 width="27px" height="29px" viewBox="0 0 27 29" enable-background="new 0 0 27 29" xml:space="preserve">
<path fill="#169DD8" d="M26.537,6.72l-5-6c-0.021-0.024-0.046-0.044-0.067-0.067c-0.04-0.043-0.081-0.084-0.125-0.124
	c-0.051-0.047-0.104-0.09-0.159-0.131c-0.044-0.032-0.089-0.063-0.136-0.093c-0.06-0.037-0.122-0.07-0.185-0.101
	c-0.049-0.023-0.098-0.047-0.149-0.066c-0.068-0.026-0.138-0.046-0.208-0.064c-0.05-0.014-0.1-0.028-0.152-0.037
	c-0.085-0.016-0.17-0.021-0.256-0.026C20.066,0.009,20.035,0,20,0c-0.008,0-0.015,0.002-0.022,0.002
	c-0.118,0.002-0.237,0.014-0.354,0.036c-0.013,0.002-0.026,0.004-0.039,0.007c-0.118,0.024-0.233,0.061-0.346,0.107
	c-0.056,0.022-0.107,0.055-0.16,0.083c-0.053,0.027-0.107,0.049-0.159,0.082l-6.75,4.334c-0.93,0.597-1.199,1.834-0.603,2.764
	c0.598,0.929,1.834,1.198,2.764,0.602l3.376-2.167c-1.205,8.211-6.264,16.604-15.833,18.436c-1.085,0.207-1.796,1.255-1.588,2.34
	c0.184,0.958,1.021,1.624,1.962,1.624c0.125,0,0.251-0.012,0.378-0.036c11.296-2.162,17.37-11.727,18.951-21.196l1.887,2.264
	C23.859,9.755,24.429,10,25.001,10c0.452,0,0.905-0.152,1.279-0.464C27.129,8.829,27.244,7.568,26.537,6.72z"/>
</svg>
