<?xml version="1.0" encoding="utf-8"?>
<!-- Generator: Adobe Illustrator 15.1.0, SVG Export Plug-In . SVG Version: 6.00 Build 0)  -->
<!DOCTYPE svg PUBLIC "-//W3C//DTD SVG 1.1//EN" "http://www.w3.org/Graphics/SVG/1.1/DTD/svg11.dtd">
<svg version="1.1" id="Layer_1" xmlns="http://www.w3.org/2000/svg" xmlns:xlink="http://www.w3.org/1999/xlink" x="0px" y="0px"
	 width="40px" height="40px" viewBox="0 0 40 40" enable-background="new 0 0 40 40" xml:space="preserve">
<path fill-rule="evenodd" clip-rule="evenodd" fill="#169DD8" d="M19.989,0c11.038,0,19.988,8.95,19.988,19.988
	c0,11.04-8.95,19.988-19.988,19.988C8.949,39.976,0,31.028,0,19.988C0,8.95,8.949,0,19.989,0z"/>
<path fill-rule="evenodd" clip-rule="evenodd" fill="#FFFFFF" d="M26.968,25.01c0,1.104-0.896,2-2,2h-10c-1.104,0-2-0.896-2-2
	c0-2.697,1.536-5.039,3.776-6.207c-1.078-0.917-1.776-2.267-1.776-3.793c0-2.761,2.239-5,5-5c2.762,0,5,2.239,5,5
	c0,1.526-0.698,2.876-1.776,3.793C25.433,19.971,26.968,22.313,26.968,25.01z M22.968,15.01c0-1.654-1.346-3-3-3s-3,1.346-3,3
	s1.346,3,3,3S22.968,16.665,22.968,15.01z M19.968,20.01c-2.762,0-5,2.238-5,5h10C24.968,22.249,22.73,20.01,19.968,20.01z"/>
</svg>
