<?xml version="1.0" encoding="utf-8"?>
<!-- Generator: Adobe Illustrator 18.0.0, SVG Export Plug-In . SVG Version: 6.00 Build 0)  -->
<!DOCTYPE svg PUBLIC "-//W3C//DTD SVG 1.1//EN" "http://www.w3.org/Graphics/SVG/1.1/DTD/svg11.dtd">
<svg version="1.1" id="Layer_1" xmlns="http://www.w3.org/2000/svg" xmlns:xlink="http://www.w3.org/1999/xlink" x="0px" y="0px"
	 width="105px" height="59px" viewBox="0 0 105 59" enable-background="new 0 0 105 59" xml:space="preserve">
<path fill="#FF7D63" d="M103,25.1L79.8,1.9c-2.4-2.4-6.3-2.4-8.7,0L56.3,16.7l8.7,8.7l10.5-10.5L90,29.4L75.5,43.9l-12-12l0,0l0,0
	L61,29.4l0,0L49.7,17.9l0,0l-16-16c-2.4-2.4-6.3-2.4-8.7,0L1.8,25.1c-2.4,2.4-2.4,6.3,0,8.7L25,56.9c2.4,2.4,6.3,2.4,8.7,0
	l14.7-14.7l-8.6-8.7L29.3,43.9L14.9,29.4l14.5-14.5l14.5,14.5l0,0l11.1,11.3l16.2,16.2c2.4,2.4,6.3,2.4,8.7,0L103,33.8
	C105.4,31.4,105.4,27.5,103,25.1z"/>
</svg>
