<?xml version="1.0" encoding="utf-8"?>
<!-- Generator: Adobe Illustrator 18.0.0, SVG Export Plug-In . SVG Version: 6.00 Build 0)  -->
<!DOCTYPE svg PUBLIC "-//W3C//DTD SVG 1.1//EN" "http://www.w3.org/Graphics/SVG/1.1/DTD/svg11.dtd">
<svg version="1.1" id="Layer_1" xmlns="http://www.w3.org/2000/svg" xmlns:xlink="http://www.w3.org/1999/xlink" x="0px" y="0px"
	 width="493.9px" height="58.3px" viewBox="0 0 493.9 58.3" enable-background="new 0 0 493.9 58.3" xml:space="preserve">
<path fill="#333333" d="M154,13.5c-0.4,0.6-0.7,1-1.1,1.3c-0.4,0.3-0.9,0.4-1.5,0.4c-0.5,0-1.1-0.2-1.7-0.5
	c-0.6-0.3-1.3-0.7-2.1-1.1c-0.8-0.4-1.7-0.8-2.7-1.1c-1-0.3-2.2-0.5-3.5-0.5c-2.2,0-3.9,0.5-5,1.4c-1.1,0.9-1.6,2.2-1.6,3.9
	c0,1,0.3,1.9,1,2.6c0.7,0.7,1.5,1.3,2.6,1.8c1.1,0.5,2.3,0.9,3.7,1.4c1.4,0.4,2.8,0.9,4.2,1.4c1.4,0.5,2.8,1.1,4.2,1.8
	c1.4,0.7,2.6,1.5,3.7,2.6c1.1,1.1,1.9,2.3,2.6,3.9c0.7,1.5,1,3.3,1,5.5c0,2.4-0.4,4.6-1.2,6.7c-0.8,2.1-2,3.9-3.6,5.4
	s-3.5,2.7-5.8,3.6c-2.3,0.9-4.9,1.3-7.8,1.3c-1.6,0-3.2-0.2-4.9-0.5c-1.7-0.3-3.3-0.8-4.8-1.4c-1.5-0.6-3-1.3-4.4-2.1
	c-0.3-0.2-0.7-0.4-1-0.6c-2.1-1.5-1.5-3.8-0.7-5c0.8-1.3,1.7-2.7,1.7-2.7c0.3-0.4,0.6-0.8,1.1-1s1-0.4,1.5-0.4
	c0.7,0,1.4,0.2,2.1,0.7c0.7,0.4,1.5,0.9,2.4,1.5c0.9,0.5,1.9,1,3.1,1.5c1.2,0.4,2.6,0.7,4.2,0.7c2.2,0,3.8-0.5,5-1.4
	c1.2-1,1.8-2.5,1.8-4.5c0-1.2-0.3-2.2-1-2.9c-0.7-0.8-1.5-1.4-2.6-1.9c-1.1-0.5-2.3-0.9-3.6-1.3c-1.4-0.4-2.8-0.8-4.2-1.2
	c-1.4-0.5-2.8-1-4.2-1.7c-1.4-0.7-2.6-1.5-3.6-2.6c-1.1-1.1-1.9-2.5-2.6-4.1c-0.7-1.6-1-3.6-1-6c0-1.9,0.4-3.8,1.2-5.6
	c0.8-1.8,1.9-3.5,3.4-4.9c1.5-1.4,3.3-2.6,5.5-3.4c2.2-0.9,4.7-1.3,7.5-1.3c1.6,0,3.1,0.1,4.6,0.4c1.5,0.2,2.9,0.6,4.2,1.1
	c1.3,0.5,2.6,1.1,3.8,1.7c0.2,0.1,0.4,0.2,0.6,0.3c2.3,1.2,1.8,3.4,1.3,4.2C155.3,11.1,154,13.5,154,13.5z"/>
<path fill="#333333" d="M191.2,26.6c-0.3,0.4-0.6,0.7-1,1c-0.3,0.2-0.7,0.4-1.3,0.4c-0.5,0-1-0.1-1.5-0.4s-0.9-0.5-1.5-0.9
	c-0.5-0.3-1.2-0.6-1.9-0.9s-1.6-0.4-2.7-0.4c-1.3,0-2.5,0.2-3.5,0.7c-1,0.5-1.8,1.2-2.4,2.1c-0.6,0.9-1.1,2-1.4,3.4
	c-0.3,1.3-0.5,2.8-0.5,4.5c0,3.5,0.7,6.2,2,8.1c1.3,1.9,3.2,2.8,5.6,2.8c1.3,0,2.3-0.2,3-0.5c0.7-0.3,1.4-0.7,1.9-1.1
	c0.5-0.4,1-0.7,1.4-1.1c0.4-0.3,1-0.5,1.6-0.5c0.9,0,1.5,0.3,2,1c0,0,0.9,1.1,1.7,2.1c0.8,1,0.9,2.4-0.3,3.6
	c-0.7,0.6-0.8,0.7-1.8,1.4c-1.2,0.8-2.5,1.4-3.8,1.9c-1.3,0.5-2.6,0.8-3.9,0.9c-1.3,0.2-2.6,0.3-3.8,0.3c-2.2,0-4.4-0.4-6.4-1.3
	c-2-0.8-3.8-2.1-5.4-3.7c-1.5-1.6-2.8-3.6-3.7-5.9c-0.9-2.3-1.4-5-1.4-8c0-2.6,0.4-5.1,1.2-7.4c0.8-2.3,1.9-4.3,3.5-5.9s3.4-3,5.7-4
	c2.3-1,4.9-1.4,7.9-1.4c2.9,0,5.4,0.5,7.5,1.4c1.3,0.6,2.5,1.3,3.7,2.1c1.7,1.4,1.4,3,0.8,3.8C192,25.4,191.2,26.6,191.2,26.6z"/>
<path fill="#333333" d="M199.5,52c0-7.4,0-30,0-31.7c0-2,1.7-2.4,2.5-2.4c0.9,0,3.9,0,3.9,0c0.5,0,1,0,1.4,0.1
	c0.4,0.1,0.7,0.2,0.9,0.4c0.2,0.2,0.4,0.5,0.6,0.8c0.1,0.3,0.2,0.7,0.3,1.2l0.6,3.4c1.3-2.1,2.8-3.7,4.5-4.9
	c1.7-1.2,3.5-1.8,5.5-1.8c1.1,0,2.1,0.2,2.9,0.5c0.7,0.3,1.1,0.9,0.9,1.8c-0.2,0.9-1.2,6.9-1.2,6.9c-0.1,0.5-0.3,0.8-0.6,1
	c-0.3,0.2-0.7,0.3-1.1,0.3c-0.4,0-0.9-0.1-1.4-0.2c-0.5-0.1-1.2-0.2-2-0.2c-2.9,0-5.1,1.5-6.8,4.6c0,0,0,18.3,0,20
	c0,1.6-1.7,2.4-2.5,2.4c-0.5,0-3.6,0-6,0C200.6,54.4,199.5,53.5,199.5,52z"/>
<path fill="#333333" d="M244.4,17.3c2.4,0,4.6,0.4,6.6,1.1c2,0.8,3.7,1.8,5.2,3.3c1.4,1.4,2.6,3.2,3.4,5.3c0.8,2.1,1.2,4.4,1.2,7.1
	c0,0.8,0,1.5-0.1,2c-0.1,0.5-0.2,0.9-0.4,1.2c-0.2,0.3-0.4,0.5-0.8,0.6s-0.7,0.2-1.2,0.2h-21.1c0.4,3.1,1.3,5.3,2.8,6.6
	c1.5,1.4,3.4,2.1,5.8,2.1c1.3,0,2.4-0.2,3.3-0.5c0.9-0.3,1.7-0.6,2.4-1c0.7-0.4,1.4-0.7,2-1c0.6-0.3,1.2-0.5,1.9-0.5
	c0.9,0,1.5,0.3,2,1c0,0,0.8,1,1.7,2.1c0.8,1,0.7,2.7-0.4,3.8c-0.6,0.5-1.1,0.9-1.7,1.2c-1.3,0.8-2.6,1.4-4,1.9
	c-1.4,0.5-2.7,0.8-4.1,0.9c-1.4,0.2-2.7,0.3-3.9,0.3c-2.6,0-5-0.4-7.2-1.2c-2.2-0.8-4.2-2.1-5.9-3.7c-1.7-1.6-3-3.7-4-6.1
	c-1-2.4-1.5-5.3-1.5-8.5c0-2.4,0.4-4.8,1.2-6.9c0.8-2.2,2-4.1,3.6-5.7c1.6-1.6,3.4-2.9,5.7-3.9C239.1,17.8,241.6,17.3,244.4,17.3z
	 M244.6,24.9c-2.1,0-3.7,0.6-4.9,1.8c-1.2,1.2-1.9,2.9-2.3,5.1H251c0-0.9-0.1-1.7-0.3-2.5c-0.2-0.8-0.6-1.6-1.1-2.2
	c-0.5-0.6-1.2-1.2-2-1.6C246.8,25.1,245.8,24.9,244.6,24.9z"/>
<path fill="#333333" d="M283.6,17.3c2.4,0,4.6,0.4,6.6,1.1c2,0.8,3.7,1.8,5.2,3.3c1.4,1.4,2.6,3.2,3.4,5.3c0.8,2.1,1.2,4.4,1.2,7.1
	c0,0.8,0,1.5-0.1,2c-0.1,0.5-0.2,0.9-0.4,1.2c-0.2,0.3-0.4,0.5-0.8,0.6c-0.3,0.1-0.7,0.2-1.2,0.2h-21.1c0.4,3.1,1.3,5.3,2.8,6.6
	c1.5,1.4,3.4,2.1,5.8,2.1c1.3,0,2.4-0.2,3.3-0.5c0.9-0.3,1.7-0.6,2.4-1s1.4-0.7,2-1c0.6-0.3,1.2-0.5,1.9-0.5c0.9,0,1.4,0.3,2,1
	c0,0,0.8,1,1.6,2c0.9,1.1,0.7,2.8-0.2,3.6c-0.6,0.5-1.2,1-1.9,1.4c-1.3,0.8-2.6,1.4-4,1.9c-1.4,0.5-2.7,0.8-4.1,0.9
	c-1.4,0.2-2.7,0.3-3.9,0.3c-2.6,0-5-0.4-7.2-1.2c-2.2-0.8-4.2-2.1-5.9-3.7c-1.7-1.6-3-3.7-4-6.1c-1-2.4-1.5-5.3-1.5-8.5
	c0-2.4,0.4-4.8,1.2-6.9s2-4.1,3.6-5.7c1.6-1.6,3.4-2.9,5.7-3.9C278.3,17.8,280.8,17.3,283.6,17.3z M283.8,24.9
	c-2.1,0-3.7,0.6-4.9,1.8c-1.2,1.2-1.9,2.9-2.3,5.1h13.6c0-0.9-0.1-1.7-0.3-2.5c-0.2-0.8-0.6-1.6-1.1-2.2c-0.5-0.6-1.2-1.2-2-1.6
	C286,25.1,285,24.9,283.8,24.9z"/>
<path fill="#333333" d="M475.1,17.3c2.8,0,5.3,0.4,7.6,1.3s4.2,2.1,5.9,3.7c1.6,1.6,2.9,3.6,3.8,5.9c0.9,2.3,1.4,4.9,1.4,7.8
	c0,2.9-0.5,5.5-1.4,7.9c-0.9,2.3-2.2,4.3-3.8,5.9s-3.6,2.9-5.9,3.8c-2.3,0.9-4.8,1.3-7.6,1.3c-2.8,0-5.3-0.4-7.6-1.3
	c-2.3-0.9-4.3-2.1-5.9-3.8c-1.7-1.6-2.9-3.6-3.8-5.9c-0.9-2.3-1.4-5-1.4-7.9c0-2.9,0.5-5.5,1.4-7.8c0.9-2.3,2.2-4.3,3.8-5.9
	c1.7-1.6,3.6-2.9,5.9-3.7C469.8,17.8,472.3,17.3,475.1,17.3z M475.1,46.9c2.5,0,4.4-0.9,5.5-2.7c1.2-1.8,1.8-4.5,1.8-8.1
	c0-3.6-0.6-6.3-1.8-8.1c-1.2-1.8-3-2.6-5.5-2.6c-2.6,0-4.5,0.9-5.7,2.6c-1.2,1.8-1.8,4.4-1.8,8.1c0,3.6,0.6,6.3,1.8,8.1
	C470.7,46,472.5,46.9,475.1,46.9z"/>
<path fill="#333333" d="M406.1,17.3c2.4,0,4.6,0.4,6.6,1.1c2,0.8,3.7,1.8,5.2,3.3c1.4,1.4,2.6,3.2,3.4,5.3c0.8,2.1,1.2,4.4,1.2,7.1
	c0,0.8,0,1.5-0.1,2c-0.1,0.5-0.2,0.9-0.4,1.2c-0.2,0.3-0.4,0.5-0.8,0.6c-0.3,0.1-0.7,0.2-1.2,0.2H399c0.4,3.1,1.3,5.3,2.8,6.6
	c1.5,1.4,3.4,2.1,5.8,2.1c1.3,0,2.4-0.2,3.3-0.5c0.9-0.3,1.7-0.6,2.4-1s1.4-0.7,2-1s1.2-0.5,1.9-0.5c0.9,0,1.5,0.3,2,1
	c0,0,0.8,1,1.7,2.1c0.8,1,0.7,2.7-0.4,3.8c-0.6,0.5-1.1,0.9-1.7,1.2c-1.3,0.8-2.6,1.4-4,1.9c-1.4,0.5-2.7,0.8-4.1,0.9
	c-1.4,0.2-2.7,0.3-3.9,0.3c-2.6,0-5-0.4-7.2-1.2c-2.2-0.8-4.2-2.1-5.9-3.7c-1.7-1.6-3-3.7-4-6.1c-1-2.4-1.5-5.3-1.5-8.5
	c0-2.4,0.4-4.8,1.2-6.9c0.8-2.2,2-4.1,3.6-5.7s3.4-2.9,5.7-3.9C400.8,17.8,403.3,17.3,406.1,17.3z M406.3,24.9
	c-2.1,0-3.7,0.6-4.9,1.8c-1.2,1.2-1.9,2.9-2.3,5.1h13.6c0-0.9-0.1-1.7-0.3-2.5c-0.2-0.8-0.6-1.6-1.1-2.2c-0.5-0.6-1.2-1.2-2-1.6
	C408.5,25.1,407.5,24.9,406.3,24.9z"/>
<path fill="#333333" d="M339.4,25.7c-0.5-1.7-1.3-3.2-2.4-4.4c-1.1-1.2-2.4-2.2-3.9-2.9c-1.5-0.7-3.3-1-5.3-1
	c-1.2,0-2.3,0.1-3.3,0.3c-1,0.2-1.9,0.5-2.8,0.9c-0.9,0.4-1.7,0.9-2.4,1.4c-0.8,0.6-1.5,1.2-2.2,1.8l-0.6-2.1
	c-0.2-0.6-0.5-1.1-1-1.4c-0.5-0.3-1-0.5-1.7-0.5c0,0-2.8,0-4.1,0c-1.7,0-2.6,1.3-2.6,2.7c0,0.9,0,12.4,0,12.4v11.1
	c0,2.6,0,5.4,0,7.9c0,1.5,1.1,2.4,2.5,2.4c2.3,0,5.5,0,6,0c0.7,0,2.5-0.8,2.5-2.4c0-0.7,0-4.1,0-7.9V32v-3.6c1-0.9,2-1.6,3-2.1
	c1.1-0.5,2.2-0.8,3.4-0.8c1.6,0,2.8,0.5,3.6,1.5c0.8,1,1.2,2.4,1.2,4.2v1.7h0c0,1.7,0,11.6,0,19c0,1.5,1.1,2.4,2.5,2.4
	c2.3,0,5.5,0,6,0c0.7,0,2.5-0.8,2.5-2.4c0-0.7,0-4.1,0-7.9V32v-0.8C340.2,29.2,339.9,27.4,339.4,25.7z"/>
<path fill="#333333" d="M381,25.7c-0.5-1.7-1.3-3.2-2.4-4.4c-1.1-1.2-2.4-2.2-3.9-2.9c-1.5-0.7-3.3-1-5.3-1c-2.1,0-4,0.3-5.5,1
	c-1.5,0.7-3,1.6-4.3,2.7V12c0-2.6,0-5.3,0-7.8c0-1.5-1.1-2.6-2.7-2.6c-2.3,0-4.6,0-5.5,0c-1,0-2.7,0.8-2.7,2.6c0,1.8,0,3.9,0,7.8
	v12.1v8.8v11.1c0,2.6,0,5.4,0,7.9c0,1.5,1.1,2.4,2.5,2.4c2.3,0,5.5,0,6,0c0.7,0,2.5-0.8,2.5-2.4c0-0.7,0-4.1,0-7.9V32v-3.6
	c1-0.9,2-1.6,3-2.1c1.1-0.5,2.2-0.8,3.4-0.8c1.6,0,2.8,0.5,3.6,1.5c0.8,1,1.2,2.4,1.2,4.2v1.7h0c0,1.7,0,11.6,0,19
	c0,1.5,1.1,2.4,2.5,2.4c2.3,0,5.5,0,6,0c0.7,0,2.5-0.8,2.5-2.4c0-0.7,0-4.1,0-7.9V32v-0.8C381.8,29.2,381.5,27.4,381,25.7z"/>
<path fill="#333333" d="M429.7,52c0-7.4,0-30,0-31.7c0-2,1.7-2.4,2.5-2.4c0.9,0,3.9,0,3.9,0c0.5,0,1,0,1.4,0.1
	c0.4,0.1,0.7,0.2,0.9,0.4c0.2,0.2,0.4,0.5,0.6,0.8c0.1,0.3,0.2,0.7,0.3,1.2l0.6,3.4c1.3-2.1,2.8-3.7,4.5-4.9
	c1.7-1.2,3.5-1.8,5.5-1.8c1.1,0,2.1,0.2,2.9,0.5c0.7,0.3,1.1,0.9,0.9,1.8c-0.2,0.9-1.2,6.9-1.2,6.9c-0.1,0.5-0.3,0.8-0.6,1
	c-0.3,0.2-0.7,0.3-1.1,0.3c-0.4,0-0.9-0.1-1.4-0.2c-0.5-0.1-1.2-0.2-2-0.2c-2.9,0-5.1,1.5-6.8,4.6c0,0,0,18.3,0,20
	c0,1.6-1.7,2.4-2.5,2.4c-0.5,0-3.6,0-6,0C430.8,54.4,429.7,53.5,429.7,52z"/>
<path fill="#FF7D63" d="M102.5,24.9L79.4,1.8c-2.4-2.4-6.3-2.4-8.7,0L56,16.5l8.7,8.7l10.4-10.4l14.4,14.4L75.1,43.6L63.2,31.6l0,0
	l0,0l-2.5-2.5l0,0L49.4,17.7l0,0L33.5,1.8c-2.4-2.4-6.3-2.4-8.7,0L1.8,24.9c-2.4,2.4-2.4,6.3,0,8.7l23.1,23c2.4,2.4,6.3,2.4,8.7,0
	l14.6-14.6l-8.6-8.7L29.2,43.6L14.8,29.1l14.4-14.4l14.4,14.4l0,0l11,11.2l16.1,16.1c2.4,2.4,6.3,2.4,8.7,0l23-23
	C104.9,31.1,104.9,27.2,102.5,24.9z"/>
</svg>
