<?xml version="1.0" encoding="utf-8"?>
<!-- Generator: Adobe Illustrator 15.1.0, SVG Export Plug-In . SVG Version: 6.00 Build 0)  -->
<!DOCTYPE svg PUBLIC "-//W3C//DTD SVG 1.1//EN" "http://www.w3.org/Graphics/SVG/1.1/DTD/svg11.dtd">
<svg xmlns="http://www.w3.org/2000/svg" version="1.1" width="18px" height="18px" viewbox="0 0 24 24" fill="white">
  <g>
<ellipse transform="rotate(0, 12, 2)" cx="12" cy="2" rx="2" ry="2" style="opacity:0;"></ellipse>
<ellipse transform="rotate(30, 17, 3.3397)" cx="17" cy="3.3397" rx="2" ry="2" style="opacity:0.08333333333333333;"></ellipse>
<ellipse transform="rotate(60, 20.6603, 7)" cx="20.6603" cy="7" rx="2" ry="2" style="opacity:0.16666666666666666;"></ellipse>
<ellipse transform="rotate(90, 22, 12)" cx="22" cy="12" rx="2" ry="2" style="opacity:0.25;"></ellipse>
<ellipse transform="rotate(120, 20.6603, 17)" cx="20.6603" cy="17" rx="2" ry="2" style="opacity:0.3333333333333333;"></ellipse>
<ellipse transform="rotate(150, 17, 20.6603)" cx="17" cy="20.6603" rx="2" ry="2" style="opacity:0.4166666666666667;"></ellipse>
<ellipse transform="rotate(180, 12, 22)" cx="12" cy="22" rx="2" ry="2" style="opacity:0.5;"></ellipse>
<ellipse transform="rotate(210, 7, 20.6603)" cx="7" cy="20.6603" rx="2" ry="2" style="opacity:0.5833333333333334;"></ellipse>
<ellipse transform="rotate(240, 3.3397, 17)" cx="3.3397" cy="17" rx="2" ry="2" style="opacity:0.6666666666666666;"></ellipse>
<ellipse transform="rotate(270, 2, 12)" cx="2" cy="12" rx="2" ry="2" style="opacity:0.75;"></ellipse>
<ellipse transform="rotate(300, 3.3397, 7)" cx="3.3397" cy="7" rx="2" ry="2" style="opacity:0.8333333333333334;"></ellipse>
<ellipse transform="rotate(330, 7, 3.3397)" cx="7" cy="3.3397" rx="2" ry="2" style="opacity:0.9166666666666666;"></ellipse>
  </g>
</svg>